Ostrich Rounded.ufo
<glyph name="dollar" format="1">
  <advance width="320"/>
  <unicode hex="0024"/>
  <outline>
    <contour>
      <point x="178" y="331"/>
      <point x="205" y="318"/>
      <point x="226" y="297" type="curve" smooth="yes"/>
      <point x="246" y="276"/>
      <point x="263" y="245"/>
      <point x="263" y="198" type="curve" smooth="yes"/>
      <point x="263" y="111"/>
      <point x="219" y="57"/>
      <point x="154" y="49" type="curve"/>
      <point x="154" y="16" type="line" smooth="yes"/>
      <point x="154" y="5"/>
      <point x="149" y="0"/>
      <point x="138" y="0" type="curve" smooth="yes"/>
      <point x="127" y="0"/>
      <point x="122" y="5"/>
      <point x="122" y="16" type="curve" smooth="yes"/>
      <point x="122" y="49" type="line"/>
      <point x="95" y="52"/>
      <point x="68" y="61"/>
      <point x="48" y="84" type="curve" smooth="yes"/>
      <point x="27" y="107"/>
      <point x="13" y="143"/>
      <point x="13" y="202" type="curve" smooth="yes"/>
      <point x="13" y="213"/>
      <point x="18" y="218"/>
      <point x="29" y="218" type="curve" smooth="yes"/>
      <point x="40" y="218"/>
      <point x="45" y="213"/>
      <point x="45" y="202" type="curve" smooth="yes"/>
      <point x="45" y="154"/>
      <point x="55" y="125"/>
      <point x="70" y="107" type="curve" smooth="yes"/>
      <point x="85" y="89"/>
      <point x="103" y="81"/>
      <point x="122" y="80" type="curve"/>
      <point x="122" y="323" type="line"/>
      <point x="121" y="324"/>
      <point x="120" y="324"/>
      <point x="119" y="325" type="curve" smooth="yes"/>
      <point x="118" y="326"/>
      <point x="116" y="326"/>
      <point x="115" y="327" type="curve"/>
      <point x="98" y="336"/>
      <point x="72" y="349"/>
      <point x="51" y="371" type="curve" smooth="yes"/>
      <point x="30" y="393"/>
      <point x="13" y="424"/>
      <point x="13" y="471" type="curve" smooth="yes"/>
      <point x="13" y="558"/>
      <point x="57" y="617"/>
      <point x="122" y="624" type="curve"/>
      <point x="122" y="659" type="line" smooth="yes"/>
      <point x="122" y="667"/>
      <point x="129" y="674"/>
      <point x="138" y="674" type="curve" smooth="yes"/>
      <point x="147" y="674"/>
      <point x="154" y="667"/>
      <point x="154" y="659" type="curve" smooth="yes"/>
      <point x="154" y="625" type="line"/>
      <point x="181" y="622"/>
      <point x="208" y="613"/>
      <point x="229" y="590" type="curve"/>
      <point x="249" y="566"/>
      <point x="263" y="528"/>
      <point x="263" y="471" type="curve" smooth="yes"/>
      <point x="263" y="460"/>
      <point x="258" y="455"/>
      <point x="247" y="455" type="curve" smooth="yes"/>
      <point x="236" y="455"/>
      <point x="231" y="460"/>
      <point x="231" y="471" type="curve" smooth="yes"/>
      <point x="231" y="519"/>
      <point x="221" y="549"/>
      <point x="206" y="567" type="curve" smooth="yes"/>
      <point x="191" y="585"/>
      <point x="173" y="590"/>
      <point x="154" y="593" type="curve"/>
      <point x="154" y="342" type="line"/>
      <point x="155" y="341"/>
      <point x="157" y="341"/>
      <point x="158" y="341" type="curve"/>
      <point x="159" y="340"/>
      <point x="160" y="340"/>
      <point x="161" y="339" type="curve"/>
    </contour>
    <contour>
      <point x="45" y="436"/>
      <point x="55" y="412"/>
      <point x="71" y="396" type="curve"/>
      <point x="86" y="379"/>
      <point x="105" y="367"/>
      <point x="122" y="359" type="curve"/>
      <point x="122" y="593" type="line"/>
      <point x="94" y="589"/>
      <point x="75" y="572"/>
      <point x="63" y="549" type="curve" smooth="yes"/>
      <point x="50" y="526"/>
      <point x="45" y="499"/>
      <point x="45" y="471" type="curve" smooth="yes"/>
    </contour>
    <contour>
      <point x="154" y="81" type="line"/>
      <point x="203" y="88"/>
      <point x="231" y="130"/>
      <point x="231" y="198" type="curve" smooth="yes"/>
      <point x="231" y="233"/>
      <point x="220" y="256"/>
      <point x="205" y="273" type="curve" smooth="yes"/>
      <point x="190" y="289"/>
      <point x="170" y="299"/>
      <point x="154" y="307" type="curve"/>
    </contour>
  </outline>
</glyph>
<glyph name="ampersand" format="1">
  <advance width="429"/>
  <unicode hex="0026"/>
  <outline>
    <contour>
      <point x="368" y="24" type="line"/>
      <point x="372" y="16"/>
      <point x="370" y="6"/>
      <point x="362" y="2" type="curve"/>
      <point x="359" y="1"/>
      <point x="357" y="0"/>
      <point x="354" y="0" type="curve" smooth="yes"/>
      <point x="349" y="0"/>
      <point x="344" y="3"/>
      <point x="341" y="8" type="curve" smooth="yes"/>
      <point x="303" y="72" type="line"/>
      <point x="269" y="24"/>
      <point x="218" y="0"/>
      <point x="150" y="0" type="curve" smooth="yes"/>
      <point x="59" y="0"/>
      <point x="-1" y="71"/>
      <point x="-1" y="166" type="curve" smooth="yes"/>
      <point x="-1" y="210"/>
      <point x="11" y="242"/>
      <point x="29" y="269" type="curve" smooth="yes"/>
      <point x="47" y="296"/>
      <point x="71" y="316"/>
      <point x="95" y="336" type="curve" smooth="yes"/>
      <point x="101" y="341"/>
      <point x="107" y="347"/>
      <point x="113" y="352" type="curve"/>
      <point x="118" y="357"/>
      <point x="124" y="362"/>
      <point x="130" y="367" type="curve"/>
      <point x="121" y="380"/>
      <point x="104" y="407"/>
      <point x="91" y="438" type="curve" smooth="yes"/>
      <point x="78" y="469"/>
      <point x="66" y="504"/>
      <point x="66" y="537" type="curve" smooth="yes"/>
      <point x="66" y="626"/>
      <point x="89" y="674"/>
      <point x="150" y="674" type="curve" smooth="yes"/>
      <point x="185" y="674"/>
      <point x="209" y="659"/>
      <point x="222" y="628" type="curve" smooth="yes"/>
      <point x="234" y="601"/>
      <point x="235" y="565"/>
      <point x="235" y="537" type="curve" smooth="yes"/>
      <point x="235" y="489"/>
      <point x="225" y="450"/>
      <point x="211" y="421" type="curve" smooth="yes"/>
      <point x="197" y="392"/>
      <point x="181" y="373"/>
      <point x="170" y="362" type="curve"/>
      <point x="302" y="137" type="line"/>
      <point x="319" y="188"/>
      <point x="322" y="245"/>
      <point x="322" y="288" type="curve" smooth="yes"/>
      <point x="322" y="297"/>
      <point x="329" y="304"/>
      <point x="337" y="304" type="curve" smooth="yes"/>
      <point x="348" y="304"/>
      <point x="353" y="299"/>
      <point x="353" y="288" type="curve" smooth="yes"/>
      <point x="353" y="237"/>
      <point x="350" y="165"/>
      <point x="322" y="105" type="curve"/>
      <point x="322" y="104"/>
      <point x="322" y="104"/>
      <point x="321" y="103" type="curve"/>
    </contour>
    <contour>
      <point x="137" y="643"/>
      <point x="124" y="640"/>
      <point x="114" y="625" type="curve" smooth="yes"/>
      <point x="104" y="610"/>
      <point x="97" y="584"/>
      <point x="97" y="537" type="curve" smooth="yes"/>
      <point x="97" y="510"/>
      <point x="106" y="481"/>
      <point x="118" y="454" type="curve" smooth="yes"/>
      <point x="130" y="427"/>
      <point x="144" y="404"/>
      <point x="153" y="389" type="curve"/>
      <point x="158" y="396"/>
      <point x="165" y="405"/>
      <point x="172" y="416" type="curve" smooth="yes"/>
      <point x="193" y="451"/>
      <point x="204" y="492"/>
      <point x="204" y="537" type="curve" smooth="yes"/>
      <point x="204" y="581"/>
      <point x="198" y="607"/>
      <point x="189" y="623" type="curve" smooth="yes"/>
      <point x="180" y="639"/>
      <point x="166" y="643"/>
      <point x="150" y="643" type="curve" smooth="yes"/>
    </contour>
    <contour>
      <point x="213" y="31"/>
      <point x="258" y="55"/>
      <point x="285" y="102" type="curve"/>
      <point x="147" y="339" type="line"/>
      <point x="142" y="334"/>
      <point x="137" y="330"/>
      <point x="132" y="326" type="curve"/>
      <point x="127" y="321"/>
      <point x="121" y="317"/>
      <point x="116" y="312" type="curve"/>
      <point x="92" y="292"/>
      <point x="71" y="275"/>
      <point x="56" y="253" type="curve" smooth="yes"/>
      <point x="40" y="231"/>
      <point x="31" y="203"/>
      <point x="31" y="166" type="curve" smooth="yes"/>
      <point x="31" y="133"/>
      <point x="40" y="98"/>
      <point x="60" y="73" type="curve" smooth="yes"/>
      <point x="79" y="48"/>
      <point x="109" y="31"/>
      <point x="150" y="31" type="curve" smooth="yes"/>
    </contour>
  </outline>
</glyph>
<glyph name="hyphen" format="1">
  <advance width="299"/>
  <unicode hex="002D"/>
  <outline>
    <contour>
      <point x="23" y="322" type="line" smooth="yes"/>
      <point x="12" y="322"/>
      <point x="7" y="327"/>
      <point x="7" y="338" type="curve" smooth="yes"/>
      <point x="7" y="349"/>
      <point x="12" y="354"/>
      <point x="23" y="354" type="curve" smooth="yes"/>
      <point x="236" y="354" type="line" smooth="yes"/>
      <point x="244" y="354"/>
      <point x="251" y="347"/>
      <point x="251" y="338" type="curve" smooth="yes"/>
      <point x="251" y="329"/>
      <point x="244" y="322"/>
      <point x="236" y="322" type="curve" smooth="yes"/>
    </contour>
  </outline>
</glyph>
<glyph name="one" format="1">
  <advance width="194"/>
  <unicode hex="0031"/>
  <outline>
    <contour>
      <point x="105" y="0"/>
      <point x="100" y="5"/>
      <point x="100" y="16" type="curve" smooth="yes"/>
      <point x="100" y="615" type="line"/>
      <point x="33" y="533" type="line"/>
      <point x="26" y="526"/>
      <point x="18" y="526"/>
      <point x="11" y="531" type="curve"/>
      <point x="4" y="538"/>
      <point x="2" y="547"/>
      <point x="9" y="554" type="curve"/>
      <point x="104" y="669" type="line"/>
      <point x="113" y="681"/>
      <point x="132" y="674"/>
      <point x="132" y="659" type="curve" smooth="yes"/>
      <point x="132" y="16" type="line" smooth="yes"/>
      <point x="132" y="5"/>
      <point x="127" y="0"/>
      <point x="116" y="0" type="curve" smooth="yes"/>
    </contour>
  </outline>
</glyph>
<glyph name="four" format="1">
  <advance width="324"/>
  <unicode hex="0034"/>
  <outline>
    <contour>
      <point x="250" y="0"/>
      <point x="245" y="5"/>
      <point x="245" y="16" type="curve" smooth="yes"/>
      <point x="245" y="206" type="line"/>
      <point x="20" y="206" type="line" smooth="yes"/>
      <point x="8" y="206"/>
      <point x="-1" y="218"/>
      <point x="6" y="229" type="curve"/>
      <point x="247" y="666" type="line" smooth="yes"/>
      <point x="255" y="681"/>
      <point x="277" y="675"/>
      <point x="277" y="659" type="curve" smooth="yes"/>
      <point x="277" y="16" type="line" smooth="yes"/>
      <point x="277" y="7"/>
      <point x="269" y="0"/>
      <point x="261" y="0" type="curve" smooth="yes"/>
    </contour>
    <contour>
      <point x="46" y="237" type="line"/>
      <point x="245" y="237" type="line"/>
      <point x="245" y="597" type="line"/>
    </contour>
  </outline>
</glyph>
<glyph name="seven" format="1">
  <advance width="376"/>
  <unicode hex="0037"/>
  <outline>
    <contour>
      <point x="55" y="0"/>
      <point x="53" y="0"/>
      <point x="52" y="1" type="curve"/>
      <point x="44" y="5"/>
      <point x="40" y="14"/>
      <point x="44" y="22" type="curve"/>
      <point x="303" y="643" type="line"/>
      <point x="19" y="643" type="line" smooth="yes"/>
      <point x="11" y="643"/>
      <point x="4" y="650"/>
      <point x="4" y="659" type="curve" smooth="yes"/>
      <point x="4" y="667"/>
      <point x="11" y="674"/>
      <point x="19" y="674" type="curve" smooth="yes"/>
      <point x="326" y="674" type="line" smooth="yes"/>
      <point x="338" y="674"/>
      <point x="345" y="663"/>
      <point x="341" y="652" type="curve"/>
      <point x="73" y="10" type="line" smooth="yes"/>
      <point x="70" y="3"/>
      <point x="65" y="0"/>
      <point x="58" y="0" type="curve" smooth="yes"/>
    </contour>
  </outline>
</glyph>
<glyph name="eight" format="1">
  <advance width="332"/>
  <unicode hex="0038"/>
  <outline>
    <contour>
      <point x="229" y="330"/>
      <point x="240" y="320"/>
      <point x="249" y="307" type="curve"/>
      <point x="270" y="279"/>
      <point x="281" y="235"/>
      <point x="281" y="176" type="curve" smooth="yes"/>
      <point x="281" y="57"/>
      <point x="239" y="0"/>
      <point x="146" y="0" type="curve" smooth="yes"/>
      <point x="51" y="0"/>
      <point x="10" y="60"/>
      <point x="10" y="176" type="curve" smooth="yes"/>
      <point x="10" y="234"/>
      <point x="21" y="278"/>
      <point x="42" y="307" type="curve" smooth="yes"/>
      <point x="51" y="320"/>
      <point x="63" y="330"/>
      <point x="76" y="337" type="curve"/>
      <point x="63" y="344"/>
      <point x="51" y="354"/>
      <point x="42" y="367" type="curve" smooth="yes"/>
      <point x="21" y="396"/>
      <point x="10" y="440"/>
      <point x="10" y="498" type="curve" smooth="yes"/>
      <point x="10" y="614"/>
      <point x="51" y="674"/>
      <point x="146" y="674" type="curve" smooth="yes"/>
      <point x="239" y="674"/>
      <point x="281" y="617"/>
      <point x="281" y="498" type="curve" smooth="yes"/>
      <point x="281" y="439"/>
      <point x="270" y="395"/>
      <point x="249" y="367" type="curve" smooth="yes"/>
      <point x="240" y="355"/>
      <point x="229" y="345"/>
      <point x="216" y="337" type="curve"/>
    </contour>
    <contour>
      <point x="84" y="364"/>
      <point x="110" y="353"/>
      <point x="146" y="353" type="curve" smooth="yes"/>
      <point x="218" y="353"/>
      <point x="249" y="394"/>
      <point x="249" y="498" type="curve" smooth="yes"/>
      <point x="249" y="602"/>
      <point x="218" y="643"/>
      <point x="146" y="643" type="curve" smooth="yes"/>
      <point x="74" y="643"/>
      <point x="42" y="602"/>
      <point x="42" y="498" type="curve" smooth="yes"/>
      <point x="42" y="446"/>
      <point x="50" y="409"/>
      <point x="67" y="386" type="curve" smooth="yes"/>
    </contour>
    <contour>
      <point x="241" y="87"/>
      <point x="249" y="124"/>
      <point x="249" y="176" type="curve" smooth="yes"/>
      <point x="249" y="280"/>
      <point x="218" y="322"/>
      <point x="146" y="322" type="curve" smooth="yes"/>
      <point x="74" y="322"/>
      <point x="42" y="280"/>
      <point x="42" y="176" type="curve" smooth="yes"/>
      <point x="42" y="72"/>
      <point x="74" y="31"/>
      <point x="146" y="31" type="curve" smooth="yes"/>
      <point x="182" y="31"/>
      <point x="208" y="42"/>
      <point x="224" y="64" type="curve" smooth="yes"/>
    </contour>
  </outline>
</glyph>
<glyph name="semicolon" format="1">
  <advance width="97"/>
  <unicode hex="003B"/>
  <outline>
    <contour>
      <point x="37" y="514"/>
      <point x="44" y="507"/>
      <point x="44" y="499" type="curve" smooth="yes"/>
      <point x="44" y="454" type="line" smooth="yes"/>
      <point x="44" y="443"/>
      <point x="39" y="438"/>
      <point x="28" y="438" type="curve" smooth="yes"/>
      <point x="17" y="438"/>
      <point x="12" y="443"/>
      <point x="12" y="454" type="curve" smooth="yes"/>
      <point x="12" y="499" type="line" smooth="yes"/>
      <point x="12" y="507"/>
      <point x="19" y="514"/>
      <point x="28" y="514" type="curve" smooth="yes"/>
    </contour>
    <contour>
      <point x="39" y="239"/>
      <point x="44" y="234"/>
      <point x="44" y="223" type="curve" smooth="yes"/>
      <point x="44" y="143" type="line" smooth="yes"/>
      <point x="44" y="132"/>
      <point x="39" y="127"/>
      <point x="28" y="127" type="curve" smooth="yes"/>
      <point x="17" y="127"/>
      <point x="12" y="132"/>
      <point x="12" y="143" type="curve" smooth="yes"/>
      <point x="12" y="223" type="line" smooth="yes"/>
      <point x="12" y="234"/>
      <point x="17" y="239"/>
      <point x="28" y="239" type="curve" smooth="yes"/>
    </contour>
  </outline>
</glyph>
<glyph name="equal" format="1">
  <advance width="312"/>
  <unicode hex="003D"/>
  <outline>
    <contour>
      <point x="23" y="422" type="line" smooth="yes"/>
      <point x="12" y="422"/>
      <point x="7" y="427"/>
      <point x="7" y="438" type="curve" smooth="yes"/>
      <point x="7" y="449"/>
      <point x="12" y="454"/>
      <point x="23" y="454" type="curve" smooth="yes"/>
      <point x="236" y="454" type="line" smooth="yes"/>
      <point x="244" y="454"/>
      <point x="251" y="447"/>
      <point x="251" y="438" type="curve" smooth="yes"/>
      <point x="251" y="429"/>
      <point x="244" y="422"/>
      <point x="236" y="422" type="curve" smooth="yes"/>
    </contour>
    <contour>
      <point x="23" y="222" type="line" smooth="yes"/>
      <point x="12" y="222"/>
      <point x="7" y="227"/>
      <point x="7" y="238" type="curve" smooth="yes"/>
      <point x="7" y="249"/>
      <point x="12" y="254"/>
      <point x="23" y="254" type="curve" smooth="yes"/>
      <point x="236" y="254" type="line" smooth="yes"/>
      <point x="244" y="254"/>
      <point x="251" y="247"/>
      <point x="251" y="238" type="curve" smooth="yes"/>
      <point x="251" y="229"/>
      <point x="244" y="222"/>
      <point x="236" y="222" type="curve" smooth="yes"/>
    </contour>
  </outline>
</glyph>
<glyph name="question" format="1">
  <advance width="303"/>
  <unicode hex="003F"/>
  <outline>
    <contour>
      <point x="253" y="593"/>
      <point x="263" y="554"/>
      <point x="263" y="507" type="curve" smooth="yes"/>
      <point x="263" y="459"/>
      <point x="250" y="425"/>
      <point x="234" y="399" type="curve" smooth="yes"/>
      <point x="218" y="373"/>
      <point x="199" y="356"/>
      <point x="184" y="344" type="curve"/>
      <point x="177" y="339"/>
      <point x="173" y="335"/>
      <point x="169" y="331" type="curve"/>
      <point x="142" y="300"/>
      <point x="127" y="224"/>
      <point x="127" y="119" type="curve" smooth="yes"/>
      <point x="127" y="116" type="line" smooth="yes"/>
      <point x="127" y="107"/>
      <point x="120" y="100"/>
      <point x="112" y="100" type="curve" smooth="yes"/>
      <point x="101" y="100"/>
      <point x="96" y="105"/>
      <point x="96" y="116" type="curve" smooth="yes"/>
      <point x="96" y="119" type="line" smooth="yes"/>
      <point x="96" y="159"/>
      <point x="97" y="207"/>
      <point x="105" y="249" type="curve" smooth="yes"/>
      <point x="112" y="291"/>
      <point x="125" y="329"/>
      <point x="146" y="352" type="curve"/>
      <point x="150" y="357"/>
      <point x="156" y="363"/>
      <point x="164" y="368" type="curve"/>
      <point x="177" y="380"/>
      <point x="195" y="394"/>
      <point x="208" y="416" type="curve" smooth="yes"/>
      <point x="221" y="438"/>
      <point x="231" y="466"/>
      <point x="231" y="507" type="curve" smooth="yes"/>
      <point x="231" y="547"/>
      <point x="223" y="582"/>
      <point x="207" y="606" type="curve" smooth="yes"/>
      <point x="190" y="631"/>
      <point x="167" y="644"/>
      <point x="138" y="644" type="curve" smooth="yes"/>
      <point x="107" y="644"/>
      <point x="85" y="633"/>
      <point x="70" y="610" type="curve"/>
      <point x="53" y="587"/>
      <point x="45" y="551"/>
      <point x="45" y="502" type="curve" smooth="yes"/>
      <point x="45" y="494"/>
      <point x="38" y="487"/>
      <point x="29" y="487" type="curve" smooth="yes"/>
      <point x="20" y="487"/>
      <point x="13" y="494"/>
      <point x="13" y="502" type="curve" smooth="yes"/>
      <point x="13" y="610"/>
      <point x="54" y="675"/>
      <point x="138" y="675" type="curve" smooth="yes"/>
      <point x="179" y="675"/>
      <point x="210" y="658"/>
      <point x="233" y="624" type="curve" smooth="yes"/>
    </contour>
    <contour>
      <point x="120" y="44"/>
      <point x="127" y="37"/>
      <point x="127" y="29" type="curve" smooth="yes"/>
      <point x="127" y="17" type="line" smooth="yes"/>
      <point x="127" y="6"/>
      <point x="122" y="1"/>
      <point x="111" y="1" type="curve" smooth="yes"/>
      <point x="100" y="1"/>
      <point x="95" y="6"/>
      <point x="95" y="17" type="curve" smooth="yes"/>
      <point x="95" y="29" type="line" smooth="yes"/>
      <point x="95" y="37"/>
      <point x="102" y="44"/>
      <point x="111" y="44" type="curve" smooth="yes"/>
    </contour>
  </outline>
</glyph>
<glyph name="at" format="1">
  <advance width="647"/>
  <unicode hex="0040"/>
  <outline>
    <contour>
      <point x="358" y="172"/>
      <point x="343" y="194"/>
      <point x="347" y="225" type="curve"/>
      <point x="326" y="210"/>
      <point x="302" y="209"/>
      <point x="271" y="209" type="curve" smooth="yes"/>
      <point x="198" y="209"/>
      <point x="163" y="247"/>
      <point x="172" y="332" type="curve" smooth="yes"/>
      <point x="183" y="415"/>
      <point x="221" y="459"/>
      <point x="296" y="459" type="curve" smooth="yes"/>
      <point x="315" y="459"/>
      <point x="350" y="457"/>
      <point x="373" y="441" type="curve"/>
      <point x="375" y="440"/>
      <point x="378" y="437"/>
      <point x="381" y="434" type="curve"/>
      <point x="382" y="437"/>
      <point x="382" y="439"/>
      <point x="382" y="442" type="curve"/>
      <point x="385" y="450"/>
      <point x="392" y="457"/>
      <point x="400" y="454" type="curve"/>
      <point x="409" y="453"/>
      <point x="416" y="445"/>
      <point x="413" y="436" type="curve"/>
      <point x="413" y="436"/>
      <point x="412" y="431"/>
      <point x="411" y="422" type="curve"/>
      <point x="408" y="403"/>
      <point x="404" y="375"/>
      <point x="398" y="341" type="curve" smooth="yes"/>
      <point x="392" y="307"/>
      <point x="386" y="274"/>
      <point x="382" y="250" type="curve" smooth="yes"/>
      <point x="378" y="225"/>
      <point x="368" y="203"/>
      <point x="395" y="195" type="curve"/>
      <point x="400" y="194"/>
      <point x="404" y="193"/>
      <point x="411" y="193" type="curve" smooth="yes"/>
      <point x="432" y="193"/>
      <point x="462" y="201"/>
      <point x="488" y="217" type="curve" smooth="yes"/>
      <point x="514" y="232"/>
      <point x="536" y="253"/>
      <point x="547" y="280" type="curve" smooth="yes"/>
      <point x="560" y="315"/>
      <point x="567" y="356"/>
      <point x="564" y="397" type="curve" smooth="yes"/>
      <point x="560" y="437"/>
      <point x="550" y="476"/>
      <point x="531" y="504" type="curve"/>
      <point x="506" y="544"/>
      <point x="468" y="573"/>
      <point x="424" y="589" type="curve" smooth="yes"/>
      <point x="379" y="605"/>
      <point x="328" y="609"/>
      <point x="276" y="598" type="curve" smooth="yes"/>
      <point x="228" y="587"/>
      <point x="178" y="564"/>
      <point x="135" y="523" type="curve" smooth="yes"/>
      <point x="92" y="482"/>
      <point x="58" y="423"/>
      <point x="46" y="346" type="curve" smooth="yes"/>
      <point x="27" y="227"/>
      <point x="66" y="133"/>
      <point x="154" y="78" type="curve" smooth="yes"/>
      <point x="210" y="43"/>
      <point x="282" y="29"/>
      <point x="352" y="33" type="curve" smooth="yes"/>
      <point x="422" y="37"/>
      <point x="491" y="58"/>
      <point x="546" y="98" type="curve" smooth="yes"/>
      <point x="553" y="103"/>
      <point x="563" y="102"/>
      <point x="568" y="95" type="curve"/>
      <point x="573" y="86"/>
      <point x="572" y="79"/>
      <point x="565" y="72" type="curve"/>
      <point x="506" y="31"/>
      <point x="433" y="5"/>
      <point x="353" y="1" type="curve"/>
      <point x="331" y="1" type="line" smooth="yes"/>
      <point x="259" y="1"/>
      <point x="193" y="18"/>
      <point x="138" y="51" type="curve" smooth="yes"/>
      <point x="38" y="114"/>
      <point x="-6" y="218"/>
      <point x="15" y="351" type="curve" smooth="yes"/>
      <point x="27" y="427"/>
      <point x="58" y="490"/>
      <point x="108" y="541" type="curve" smooth="yes"/>
      <point x="152" y="586"/>
      <point x="207" y="616"/>
      <point x="270" y="629" type="curve" smooth="yes"/>
      <point x="327" y="641"/>
      <point x="386" y="637"/>
      <point x="436" y="618" type="curve" smooth="yes"/>
      <point x="486" y="599"/>
      <point x="529" y="566"/>
      <point x="558" y="521" type="curve" smooth="yes"/>
      <point x="579" y="488"/>
      <point x="591" y="444"/>
      <point x="595" y="400" type="curve" smooth="yes"/>
      <point x="598" y="355"/>
      <point x="592" y="308"/>
      <point x="576" y="268" type="curve" smooth="yes"/>
      <point x="561" y="232"/>
      <point x="529" y="203"/>
      <point x="493" y="184" type="curve" smooth="yes"/>
      <point x="456" y="164"/>
      <point x="416" y="157"/>
      <point x="387" y="165" type="curve" smooth="yes"/>
    </contour>
    <contour>
      <point x="304" y="241"/>
      <point x="321" y="243"/>
      <point x="333" y="255" type="curve" smooth="yes"/>
      <point x="348" y="270"/>
      <point x="359" y="302"/>
      <point x="368" y="359" type="curve" smooth="yes"/>
      <point x="371" y="378"/>
      <point x="371" y="391"/>
      <point x="368" y="399" type="curve"/>
      <point x="361" y="414"/>
      <point x="352" y="420"/>
      <point x="332" y="424" type="curve" smooth="yes"/>
      <point x="321" y="426"/>
      <point x="309" y="427"/>
      <point x="296" y="427" type="curve" smooth="yes"/>
      <point x="240" y="427"/>
      <point x="212" y="396"/>
      <point x="204" y="328" type="curve" smooth="yes"/>
      <point x="195" y="261"/>
      <point x="215" y="241"/>
      <point x="271" y="241" type="curve" smooth="yes"/>
    </contour>
  </outline>
</glyph>
<glyph name="D" format="1">
  <advance width="348"/>
  <unicode hex="0044"/>
  <outline>
    <contour>
      <point x="28" y="0" type="line" smooth="yes"/>
      <point x="17" y="0"/>
      <point x="12" y="5"/>
      <point x="12" y="16" type="curve" smooth="yes"/>
      <point x="12" y="659" type="line" smooth="yes"/>
      <point x="12" y="667"/>
      <point x="19" y="674"/>
      <point x="28" y="674" type="curve" smooth="yes"/>
      <point x="127" y="674" type="line" smooth="yes"/>
      <point x="234" y="674"/>
      <point x="283" y="612"/>
      <point x="283" y="492" type="curve" smooth="yes"/>
      <point x="283" y="182" type="line" smooth="yes"/>
      <point x="283" y="62"/>
      <point x="234" y="0"/>
      <point x="127" y="0" type="curve" smooth="yes"/>
    </contour>
    <contour>
      <point x="43" y="31" type="line"/>
      <point x="127" y="31" type="line" smooth="yes"/>
      <point x="214" y="31"/>
      <point x="251" y="78"/>
      <point x="251" y="182" type="curve" smooth="yes"/>
      <point x="251" y="492" type="line" smooth="yes"/>
      <point x="251" y="596"/>
      <point x="214" y="643"/>
      <point x="127" y="643" type="curve" smooth="yes"/>
      <point x="43" y="643" type="line"/>
    </contour>
  </outline>
</glyph>
<glyph name="G" format="1">
  <advance width="352"/>
  <unicode hex="0047"/>
  <outline>
    <contour>
      <point x="56" y="0"/>
      <point x="7" y="62"/>
      <point x="7" y="178" type="curve" smooth="yes"/>
      <point x="7" y="497" type="line" smooth="yes"/>
      <point x="7" y="613"/>
      <point x="55" y="674"/>
      <point x="151" y="674" type="curve" smooth="yes"/>
      <point x="247" y="674"/>
      <point x="295" y="613"/>
      <point x="295" y="497" type="curve" smooth="yes"/>
      <point x="295" y="486"/>
      <point x="290" y="481"/>
      <point x="279" y="481" type="curve" smooth="yes"/>
      <point x="268" y="481"/>
      <point x="263" y="486"/>
      <point x="263" y="497" type="curve" smooth="yes"/>
      <point x="263" y="562"/>
      <point x="247" y="599"/>
      <point x="225" y="619" type="curve" smooth="yes"/>
      <point x="203" y="639"/>
      <point x="175" y="643"/>
      <point x="151" y="643" type="curve" smooth="yes"/>
      <point x="127" y="643"/>
      <point x="99" y="639"/>
      <point x="77" y="619" type="curve" smooth="yes"/>
      <point x="55" y="599"/>
      <point x="38" y="562"/>
      <point x="38" y="497" type="curve" smooth="yes"/>
      <point x="38" y="178" type="line" smooth="yes"/>
      <point x="38" y="78"/>
      <point x="78" y="31"/>
      <point x="151" y="31" type="curve" smooth="yes"/>
      <point x="224" y="31"/>
      <point x="263" y="75"/>
      <point x="263" y="178" type="curve" smooth="yes"/>
      <point x="263" y="266" type="line"/>
      <point x="133" y="266" type="line" smooth="yes"/>
      <point x="122" y="266"/>
      <point x="117" y="271"/>
      <point x="117" y="282" type="curve" smooth="yes"/>
      <point x="117" y="293"/>
      <point x="122" y="298"/>
      <point x="133" y="298" type="curve" smooth="yes"/>
      <point x="279" y="298" type="line" smooth="yes"/>
      <point x="290" y="298"/>
      <point x="295" y="293"/>
      <point x="295" y="282" type="curve" smooth="yes"/>
      <point x="295" y="178" type="line" smooth="yes"/>
      <point x="295" y="62"/>
      <point x="246" y="0"/>
      <point x="151" y="0" type="curve" smooth="yes"/>
    </contour>
  </outline>
</glyph>
<glyph name="K" format="1">
  <advance width="360"/>
  <unicode hex="004B"/>
  <outline>
    <contour>
      <point x="322" y="16"/>
      <point x="319" y="6"/>
      <point x="312" y="2" type="curve"/>
      <point x="308" y="1"/>
      <point x="305" y="0"/>
      <point x="304" y="0" type="curve" smooth="yes"/>
      <point x="298" y="0"/>
      <point x="293" y="3"/>
      <point x="290" y="8" type="curve" smooth="yes"/>
      <point x="107" y="335" type="line"/>
      <point x="39" y="233" type="line"/>
      <point x="39" y="16" type="line" smooth="yes"/>
      <point x="39" y="7"/>
      <point x="32" y="0"/>
      <point x="24" y="0" type="curve" smooth="yes"/>
      <point x="13" y="0"/>
      <point x="8" y="5"/>
      <point x="8" y="16" type="curve" smooth="yes"/>
      <point x="8" y="659" type="line" smooth="yes"/>
      <point x="8" y="667"/>
      <point x="15" y="674"/>
      <point x="24" y="674" type="curve" smooth="yes"/>
      <point x="32" y="674"/>
      <point x="39" y="667"/>
      <point x="39" y="659" type="curve" smooth="yes"/>
      <point x="39" y="291" type="line"/>
      <point x="291" y="667" type="line" smooth="yes"/>
      <point x="296" y="675"/>
      <point x="306" y="676"/>
      <point x="313" y="672" type="curve"/>
      <point x="320" y="667"/>
      <point x="322" y="657"/>
      <point x="317" y="650" type="curve" smooth="yes"/>
      <point x="127" y="364" type="line"/>
      <point x="318" y="23" type="line" smooth="yes"/>
    </contour>
  </outline>
</glyph>
<glyph name="S" format="1">
  <advance width="352"/>
  <unicode hex="0053"/>
  <outline>
    <contour>
      <point x="62" y="1"/>
      <point x="14" y="63"/>
      <point x="14" y="179" type="curve" smooth="yes"/>
      <point x="14" y="190"/>
      <point x="19" y="195"/>
      <point x="30" y="195" type="curve" smooth="yes"/>
      <point x="38" y="195"/>
      <point x="45" y="188"/>
      <point x="45" y="179" type="curve" smooth="yes"/>
      <point x="45" y="114"/>
      <point x="62" y="77"/>
      <point x="84" y="57" type="curve" smooth="yes"/>
      <point x="106" y="36"/>
      <point x="134" y="32"/>
      <point x="158" y="32" type="curve" smooth="yes"/>
      <point x="230" y="32"/>
      <point x="271" y="85"/>
      <point x="271" y="174" type="curve" smooth="yes"/>
      <point x="271" y="222"/>
      <point x="252" y="254"/>
      <point x="229" y="275" type="curve"/>
      <point x="217" y="285"/>
      <point x="205" y="293"/>
      <point x="192" y="299" type="curve" smooth="yes"/>
      <point x="179" y="305"/>
      <point x="169" y="310"/>
      <point x="161" y="314" type="curve" smooth="yes"/>
      <point x="144" y="322" type="line"/>
      <point x="124" y="330"/>
      <point x="92" y="344"/>
      <point x="65" y="372" type="curve"/>
      <point x="37" y="399"/>
      <point x="14" y="437"/>
      <point x="14" y="496" type="curve" smooth="yes"/>
      <point x="14" y="597"/>
      <point x="65" y="675"/>
      <point x="158" y="675" type="curve" smooth="yes"/>
      <point x="254" y="675"/>
      <point x="303" y="613"/>
      <point x="303" y="496" type="curve" smooth="yes"/>
      <point x="303" y="488"/>
      <point x="296" y="480"/>
      <point x="287" y="480" type="curve" smooth="yes"/>
      <point x="278" y="480"/>
      <point x="271" y="488"/>
      <point x="271" y="496" type="curve" smooth="yes"/>
      <point x="271" y="597"/>
      <point x="234" y="644"/>
      <point x="158" y="644" type="curve" smooth="yes"/>
      <point x="87" y="644"/>
      <point x="45" y="583"/>
      <point x="45" y="496" type="curve" smooth="yes"/>
      <point x="45" y="448"/>
      <point x="63" y="416"/>
      <point x="87" y="394" type="curve" smooth="yes"/>
      <point x="110" y="372"/>
      <point x="137" y="359"/>
      <point x="157" y="351" type="curve" smooth="yes"/>
      <point x="173" y="344" type="line" smooth="yes"/>
      <point x="190" y="336"/>
      <point x="223" y="323"/>
      <point x="251" y="297" type="curve" smooth="yes"/>
      <point x="279" y="271"/>
      <point x="303" y="233"/>
      <point x="303" y="174" type="curve" smooth="yes"/>
      <point x="303" y="125"/>
      <point x="290" y="83"/>
      <point x="267" y="52" type="curve" smooth="yes"/>
      <point x="241" y="18"/>
      <point x="205" y="1"/>
      <point x="158" y="1" type="curve" smooth="yes"/>
    </contour>
  </outline>
</glyph>
<glyph name="W" format="1">
  <advance width="651"/>
  <unicode hex="0057"/>
  <outline>
    <contour>
      <point x="437" y="1"/>
      <point x="432" y="5"/>
      <point x="431" y="13" type="curve"/>
      <point x="304" y="586" type="line"/>
      <point x="178" y="13" type="line" smooth="yes"/>
      <point x="176" y="5"/>
      <point x="171" y="1"/>
      <point x="162" y="1" type="curve" smooth="yes"/>
      <point x="154" y="1"/>
      <point x="149" y="5"/>
      <point x="147" y="13" type="curve" smooth="yes"/>
      <point x="5" y="656" type="line"/>
      <point x="2" y="664"/>
      <point x="9" y="672"/>
      <point x="17" y="675" type="curve"/>
      <point x="28" y="676"/>
      <point x="34" y="672"/>
      <point x="36" y="663" type="curve" smooth="yes"/>
      <point x="162" y="90" type="line"/>
      <point x="289" y="663" type="line"/>
      <point x="290" y="671"/>
      <point x="295" y="675"/>
      <point x="304" y="675" type="curve" smooth="yes"/>
      <point x="313" y="675"/>
      <point x="318" y="671"/>
      <point x="320" y="663" type="curve" smooth="yes"/>
      <point x="446" y="90" type="line"/>
      <point x="572" y="663" type="line"/>
      <point x="575" y="671"/>
      <point x="583" y="676"/>
      <point x="591" y="675" type="curve"/>
      <point x="600" y="672"/>
      <point x="606" y="664"/>
      <point x="603" y="656" type="curve"/>
      <point x="461" y="13" type="line"/>
      <point x="460" y="5"/>
      <point x="455" y="1"/>
      <point x="446" y="1" type="curve" smooth="yes"/>
    </contour>
  </outline>
</glyph>
<glyph name="X" format="1">
  <advance width="392"/>
  <unicode hex="0058"/>
  <outline>
    <contour>
      <point x="341" y="23" type="line" smooth="yes"/>
      <point x="345" y="15"/>
      <point x="341" y="6"/>
      <point x="333" y="2" type="curve"/>
      <point x="332" y="1"/>
      <point x="330" y="1"/>
      <point x="327" y="1" type="curve" smooth="yes"/>
      <point x="320" y="1"/>
      <point x="315" y="4"/>
      <point x="312" y="10" type="curve" smooth="yes"/>
      <point x="175" y="301" type="line"/>
      <point x="38" y="10" type="line" smooth="yes"/>
      <point x="35" y="4"/>
      <point x="30" y="1"/>
      <point x="24" y="1" type="curve" smooth="yes"/>
      <point x="21" y="1"/>
      <point x="18" y="1"/>
      <point x="17" y="2" type="curve"/>
      <point x="8" y="7"/>
      <point x="6" y="14"/>
      <point x="9" y="23" type="curve"/>
      <point x="158" y="338" type="line"/>
      <point x="9" y="652" type="line"/>
      <point x="6" y="660"/>
      <point x="9" y="670"/>
      <point x="17" y="673" type="curve"/>
      <point x="26" y="678"/>
      <point x="33" y="675"/>
      <point x="38" y="666" type="curve"/>
      <point x="175" y="375" type="line"/>
      <point x="312" y="666" type="line" smooth="yes"/>
      <point x="316" y="674"/>
      <point x="326" y="677"/>
      <point x="333" y="673" type="curve"/>
      <point x="341" y="670"/>
      <point x="345" y="660"/>
      <point x="341" y="652" type="curve" smooth="yes"/>
      <point x="193" y="338" type="line"/>
    </contour>
  </outline>
</glyph>
<glyph name="Y" format="1">
  <advance width="417"/>
  <unicode hex="0059"/>
  <outline>
    <contour>
      <point x="387" y="669"/>
      <point x="390" y="659"/>
      <point x="385" y="652" type="curve"/>
      <point x="211" y="334" type="line"/>
      <point x="211" y="16" type="line" smooth="yes"/>
      <point x="211" y="8"/>
      <point x="204" y="1"/>
      <point x="195" y="1" type="curve" smooth="yes"/>
      <point x="186" y="1"/>
      <point x="179" y="8"/>
      <point x="179" y="16" type="curve" smooth="yes"/>
      <point x="179" y="334" type="line"/>
      <point x="5" y="652" type="line" smooth="yes"/>
      <point x="1" y="659"/>
      <point x="3" y="669"/>
      <point x="11" y="673" type="curve" smooth="yes"/>
      <point x="19" y="677"/>
      <point x="28" y="674"/>
      <point x="33" y="667" type="curve"/>
      <point x="195" y="371" type="line"/>
      <point x="358" y="667" type="line" smooth="yes"/>
      <point x="362" y="674"/>
      <point x="372" y="677"/>
      <point x="379" y="673" type="curve"/>
    </contour>
  </outline>
</glyph>
<glyph name="backslash" format="1">
  <advance width="380"/>
  <unicode hex="005C"/>
  <outline>
    <contour>
      <point x="276" y="0"/>
      <point x="271" y="3"/>
      <point x="268" y="10" type="curve"/>
      <point x="32" y="653" type="line" smooth="yes"/>
      <point x="29" y="661"/>
      <point x="33" y="670"/>
      <point x="41" y="673" type="curve"/>
      <point x="52" y="676"/>
      <point x="59" y="673"/>
      <point x="62" y="664" type="curve" smooth="yes"/>
      <point x="298" y="21" type="line" smooth="yes"/>
      <point x="301" y="13"/>
      <point x="297" y="4"/>
      <point x="289" y="1" type="curve"/>
      <point x="288" y="0"/>
      <point x="286" y="0"/>
      <point x="283" y="0" type="curve" smooth="yes"/>
    </contour>
  </outline>
</glyph>
<glyph name="a" format="1">
  <advance width="392"/>
  <unicode hex="0061"/>
  <outline>
    <contour>
      <point x="342" y="19" type="line"/>
      <point x="345" y="11"/>
      <point x="338" y="3"/>
      <point x="330" y="0" type="curve"/>
      <point x="326" y="0" type="line" smooth="yes"/>
      <point x="318" y="0"/>
      <point x="313" y="4"/>
      <point x="311" y="12" type="curve" smooth="yes"/>
      <point x="266" y="206" type="line"/>
      <point x="89" y="206" type="line"/>
      <point x="44" y="12" type="line"/>
      <point x="41" y="4"/>
      <point x="33" y="-3"/>
      <point x="25" y="0" type="curve"/>
      <point x="16" y="3"/>
      <point x="10" y="11"/>
      <point x="13" y="19" type="curve"/>
      <point x="162" y="662" type="line" smooth="yes"/>
      <point x="164" y="670"/>
      <point x="169" y="674"/>
      <point x="177" y="674" type="curve" smooth="yes"/>
      <point x="186" y="674"/>
      <point x="191" y="670"/>
      <point x="193" y="662" type="curve" smooth="yes"/>
    </contour>
    <contour>
      <point x="259" y="237" type="line"/>
      <point x="177" y="589" type="line"/>
      <point x="96" y="237" type="line"/>
    </contour>
  </outline>
</glyph>
<glyph name="h" format="1">
  <advance width="344"/>
  <unicode hex="0068"/>
  <outline>
    <contour>
      <point x="273" y="674"/>
      <point x="280" y="667"/>
      <point x="280" y="659" type="curve" smooth="yes"/>
      <point x="280" y="16" type="line" smooth="yes"/>
      <point x="280" y="5"/>
      <point x="275" y="0"/>
      <point x="264" y="0" type="curve" smooth="yes"/>
      <point x="253" y="0"/>
      <point x="248" y="5"/>
      <point x="248" y="16" type="curve" smooth="yes"/>
      <point x="248" y="321" type="line"/>
      <point x="44" y="321" type="line"/>
      <point x="44" y="16" type="line" smooth="yes"/>
      <point x="44" y="5"/>
      <point x="39" y="0"/>
      <point x="28" y="0" type="curve" smooth="yes"/>
      <point x="17" y="0"/>
      <point x="12" y="5"/>
      <point x="12" y="16" type="curve" smooth="yes"/>
      <point x="12" y="659" type="line" smooth="yes"/>
      <point x="12" y="667"/>
      <point x="19" y="674"/>
      <point x="28" y="674" type="curve" smooth="yes"/>
      <point x="37" y="674"/>
      <point x="44" y="667"/>
      <point x="44" y="659" type="curve" smooth="yes"/>
      <point x="44" y="353" type="line"/>
      <point x="248" y="353" type="line"/>
      <point x="248" y="659" type="line" smooth="yes"/>
      <point x="248" y="667"/>
      <point x="255" y="674"/>
      <point x="264" y="674" type="curve" smooth="yes"/>
    </contour>
  </outline>
</glyph>
<glyph name="j" format="1">
  <advance width="324"/>
  <unicode hex="006A"/>
  <outline>
    <contour>
      <point x="45" y="0"/>
      <point x="0" y="56"/>
      <point x="0" y="165" type="curve" smooth="yes"/>
      <point x="0" y="173"/>
      <point x="7" y="181"/>
      <point x="16" y="181" type="curve" smooth="yes"/>
      <point x="24" y="181"/>
      <point x="31" y="173"/>
      <point x="31" y="165" type="curve" smooth="yes"/>
      <point x="31" y="105"/>
      <point x="46" y="72"/>
      <point x="66" y="53" type="curve" smooth="yes"/>
      <point x="86" y="34"/>
      <point x="111" y="31"/>
      <point x="134" y="31" type="curve" smooth="yes"/>
      <point x="201" y="31"/>
      <point x="236" y="73"/>
      <point x="236" y="165" type="curve" smooth="yes"/>
      <point x="236" y="659" type="line" smooth="yes"/>
      <point x="236" y="667"/>
      <point x="243" y="674"/>
      <point x="252" y="674" type="curve" smooth="yes"/>
      <point x="260" y="674"/>
      <point x="267" y="667"/>
      <point x="267" y="659" type="curve" smooth="yes"/>
      <point x="267" y="165" type="line" smooth="yes"/>
      <point x="267" y="56"/>
      <point x="223" y="0"/>
      <point x="134" y="0" type="curve" smooth="yes"/>
    </contour>
  </outline>
</glyph>
<glyph name="l" format="1">
  <advance width="295"/>
  <unicode hex="006C"/>
  <outline>
    <contour>
      <point x="21" y="0" type="line" smooth="yes"/>
      <point x="10" y="0"/>
      <point x="5" y="5"/>
      <point x="5" y="16" type="curve" smooth="yes"/>
      <point x="5" y="659" type="line" smooth="yes"/>
      <point x="5" y="667"/>
      <point x="12" y="674"/>
      <point x="21" y="674" type="curve" smooth="yes"/>
      <point x="29" y="674"/>
      <point x="36" y="667"/>
      <point x="36" y="659" type="curve" smooth="yes"/>
      <point x="36" y="31" type="line"/>
      <point x="247" y="31" type="line" smooth="yes"/>
      <point x="256" y="31"/>
      <point x="263" y="24"/>
      <point x="263" y="16" type="curve" smooth="yes"/>
      <point x="263" y="5"/>
      <point x="258" y="0"/>
      <point x="247" y="0" type="curve" smooth="yes"/>
    </contour>
  </outline>
</glyph>
<glyph name="m" format="1">
  <advance width="473"/>
  <unicode hex="006D"/>
  <outline>
    <contour>
      <point x="381" y="0"/>
      <point x="376" y="5"/>
      <point x="376" y="16" type="curve" smooth="yes"/>
      <point x="376" y="546" type="line"/>
      <point x="223" y="11" type="line"/>
      <point x="220" y="4"/>
      <point x="215" y="0"/>
      <point x="207" y="0" type="curve" smooth="yes"/>
      <point x="200" y="0"/>
      <point x="195" y="4"/>
      <point x="192" y="11" type="curve"/>
      <point x="39" y="546" type="line"/>
      <point x="39" y="16" type="line" smooth="yes"/>
      <point x="39" y="5"/>
      <point x="34" y="0"/>
      <point x="23" y="0" type="curve" smooth="yes"/>
      <point x="12" y="0"/>
      <point x="7" y="5"/>
      <point x="7" y="16" type="curve" smooth="yes"/>
      <point x="7" y="659" type="line" smooth="yes"/>
      <point x="7" y="676"/>
      <point x="33" y="680"/>
      <point x="38" y="663" type="curve" smooth="yes"/>
      <point x="207" y="73" type="line"/>
      <point x="377" y="663" type="line" smooth="yes"/>
      <point x="382" y="680"/>
      <point x="408" y="676"/>
      <point x="408" y="659" type="curve" smooth="yes"/>
      <point x="408" y="16" type="line" smooth="yes"/>
      <point x="408" y="7"/>
      <point x="400" y="0"/>
      <point x="392" y="0" type="curve" smooth="yes"/>
    </contour>
  </outline>
</glyph>
<glyph name="n" format="1">
  <advance width="360"/>
  <unicode hex="006E"/>
  <outline>
    <contour>
      <point x="285" y="0" type="line" smooth="yes"/>
      <point x="278" y="0"/>
      <point x="273" y="3"/>
      <point x="271" y="10" type="curve"/>
      <point x="42" y="577" type="line"/>
      <point x="42" y="16" type="line" smooth="yes"/>
      <point x="42" y="5"/>
      <point x="37" y="0"/>
      <point x="26" y="0" type="curve" smooth="yes"/>
      <point x="15" y="0"/>
      <point x="10" y="5"/>
      <point x="10" y="16" type="curve" smooth="yes"/>
      <point x="10" y="659" type="line" smooth="yes"/>
      <point x="10" y="676"/>
      <point x="34" y="680"/>
      <point x="41" y="664" type="curve" smooth="yes"/>
      <point x="269" y="97" type="line"/>
      <point x="269" y="659" type="line" smooth="yes"/>
      <point x="269" y="667"/>
      <point x="276" y="674"/>
      <point x="285" y="674" type="curve" smooth="yes"/>
      <point x="294" y="674"/>
      <point x="301" y="667"/>
      <point x="301" y="659" type="curve" smooth="yes"/>
      <point x="301" y="16" type="line" smooth="yes"/>
      <point x="301" y="7"/>
      <point x="297" y="2"/>
      <point x="288" y="0" type="curve"/>
    </contour>
  </outline>
</glyph>
<glyph name="bar" format="1">
  <advance width="89"/>
  <unicode hex="007C"/>
  <outline>
    <contour>
      <point x="13" y="0"/>
      <point x="8" y="5"/>
      <point x="8" y="16" type="curve" smooth="yes"/>
      <point x="8" y="659" type="line" smooth="yes"/>
      <point x="8" y="667"/>
      <point x="15" y="674"/>
      <point x="24" y="674" type="curve" smooth="yes"/>
      <point x="33" y="674"/>
      <point x="40" y="667"/>
      <point x="40" y="659" type="curve" smooth="yes"/>
      <point x="40" y="16" type="line" smooth="yes"/>
      <point x="40" y="5"/>
      <point x="35" y="0"/>
      <point x="24" y="0" type="curve" smooth="yes"/>
    </contour>
  </outline>
</glyph>
